<svg width="39" height="50" viewBox="0 0 39 50" fill="none" xmlns="http://www.w3.org/2000/svg">
<g clip-path="url(#clip0_1004_923)">
<path d="M24.3749 0.0466309C24.6675 0.312345 24.9171 0.550548 25.1794 0.773989C26.1812 1.62817 27.1656 2.50381 28.1976 3.32109C29.2591 4.16184 30.3575 4.95697 31.4593 5.74472C32.4893 6.48147 33.5803 7.12362 34.6807 7.75167C35.4846 8.20996 36.1422 8.84405 36.6991 9.58281C37.2023 10.2498 37.6009 10.9751 37.9351 11.7394C38.2243 12.4003 38.4504 13.0821 38.6134 13.7826C38.802 14.5925 38.9167 15.4131 38.9738 16.2458C39.0274 17.0309 38.9986 17.8126 38.9167 18.5882C38.8516 19.2056 38.696 19.8155 38.547 20.4201C38.3236 21.3259 37.9364 22.1646 37.4164 22.9403C37.3191 23.0852 37.2104 23.2221 37.0775 23.3429C37.1138 23.0973 37.1641 22.8524 37.1829 22.6048C37.2332 21.9264 37.303 21.2474 37.3023 20.569C37.3023 20.0584 37.2372 19.5417 37.1399 19.0391C37.0373 18.5111 36.8937 17.9857 36.7125 17.4791C36.3193 16.3793 35.7033 15.407 34.9196 14.5428C34.3063 13.8658 33.6132 13.2807 32.8529 12.7734C32.1558 12.3084 31.4237 11.9045 30.6487 11.5904C30.0415 11.3442 29.4154 11.1429 28.7948 10.9315C28.521 10.8382 28.2378 10.7738 27.9621 10.6866C27.648 10.5873 27.5816 10.6296 27.5809 10.9563C27.5809 17.0973 27.5796 23.2382 27.5823 29.3792C27.5823 29.9831 27.599 30.5897 27.4608 31.1801C27.3501 31.6559 27.2152 32.1303 27.0428 32.5865C26.7301 33.4132 26.2544 34.1479 25.6659 34.8069C24.9117 35.6516 24.0106 36.2904 22.9652 36.7286C21.8486 37.1969 20.6844 37.3962 19.482 37.303C18.7768 37.2479 18.0843 37.1017 17.4147 36.8494C16.0754 36.3448 14.9669 35.5342 14.0845 34.411C13.5531 33.7339 13.1592 32.9844 12.8828 32.1678C12.5647 31.2291 12.4386 30.2669 12.5037 29.2819C12.5594 28.4431 12.7452 27.6319 13.0747 26.8536C13.5846 25.6451 14.3529 24.6373 15.3802 23.8267C16.1277 23.2376 16.9591 22.8115 17.8723 22.5337C18.8499 22.2358 19.8484 22.1714 20.8542 22.2633C21.8345 22.3525 22.7618 22.6491 23.6268 23.1275C23.7972 23.2221 23.9609 23.3281 24.1327 23.4207C24.1817 23.4469 24.2602 23.4704 24.2991 23.4489C24.3373 23.4275 24.3581 23.3476 24.3608 23.2926C24.3682 23.1027 24.3642 22.9128 24.3642 22.7229C24.3642 15.2406 24.3642 7.75905 24.3642 0.276782C24.3642 0.217064 24.3702 0.157345 24.3756 0.0466309L24.3749 0.0466309Z" fill="#A0A0A0"/>
<path d="M4.27124 29.4912C4.32492 28.9483 4.36988 28.0472 4.51481 27.1628C4.63962 26.4026 4.86775 25.6571 5.07107 24.911C5.29317 24.0957 5.6441 23.3274 6.02992 22.5799C6.88745 20.9199 8.00868 19.4544 9.38221 18.1849C10.1586 17.4676 10.9933 16.8215 11.9045 16.2907C12.5761 15.8995 13.278 15.5513 13.9919 15.2433C14.618 14.9729 15.2715 14.7541 15.9284 14.5683C16.5001 14.4072 17.0926 14.3173 17.6784 14.2086C18.3541 14.0831 19.0372 14.0154 19.7256 14.0221C19.9859 14.0247 20.002 14.0388 20.0027 14.2972C20.0041 14.7219 20.0047 15.1466 20.002 15.5714C20.0007 15.7881 19.9833 15.8069 19.7739 15.8036C18.9882 15.7908 18.2125 15.8921 17.4456 16.0377C16.6638 16.186 15.8976 16.4034 15.1501 16.6852C14.3912 16.9718 13.6638 17.32 12.968 17.7327C11.5777 18.556 10.3619 19.5866 9.32383 20.8266C8.61526 21.6734 8.01472 22.5913 7.52288 23.5784C7.17195 24.2822 6.88879 25.0136 6.65931 25.7672C6.44392 26.473 6.29228 27.193 6.19498 27.9211C6.07487 28.8188 6.01985 29.7233 6.09433 30.6285C6.13862 31.162 6.17821 31.7008 6.29026 32.2215C6.44526 32.9441 6.64589 33.6587 6.86464 34.3646C7.13236 35.2302 7.53161 36.0421 7.99124 36.8211C8.87695 38.3215 10.0049 39.6131 11.365 40.7015C12.0863 41.2779 12.8573 41.7798 13.6799 42.1971C14.465 42.5957 15.2762 42.9312 16.1277 43.1674C16.7403 43.3378 17.357 43.4747 17.9857 43.574C19.2478 43.7747 20.5113 43.7887 21.7741 43.6277C22.3848 43.5499 22.9933 43.4184 23.5878 43.2553C24.2401 43.0761 24.8882 42.8648 25.5143 42.6091C26.3617 42.2636 27.1589 41.8127 27.9144 41.2913C29.3678 40.2882 30.5903 39.0576 31.5888 37.6002C32.19 36.7218 32.6839 35.7858 33.0616 34.7954C33.2871 34.2042 33.4515 33.5876 33.6159 32.9757C33.8755 32.0067 33.9641 31.0123 34.0024 30.0132C34.0077 29.8723 34.0567 29.8106 34.2003 29.8112C34.6586 29.8146 35.1162 29.8139 35.5745 29.8092C35.7322 29.8079 35.7946 29.8716 35.7845 30.0313C35.7302 30.8835 35.698 31.7383 35.5161 32.5757C35.3806 33.2011 35.245 33.8278 35.0672 34.4418C34.8384 35.2289 34.5237 35.9864 34.1594 36.7218C33.6092 37.8303 32.9415 38.8623 32.1518 39.8158C31.2526 40.9008 30.2253 41.8482 29.0759 42.6595C28.2231 43.2613 27.3186 43.782 26.3564 44.188C25.7672 44.4362 25.1627 44.6563 24.5494 44.8355C23.8831 45.0308 23.206 45.2092 22.521 45.3139C21.2944 45.5011 20.0577 45.6038 18.8157 45.4521C18.2125 45.3783 17.6046 45.33 17.0087 45.2173C16.2049 45.065 15.4192 44.8362 14.6475 44.5557C13.7692 44.237 12.9271 43.8444 12.1232 43.3747C11.1825 42.8259 10.3075 42.1824 9.49628 41.4523C8.43208 40.4942 7.52087 39.4058 6.74788 38.204C6.17083 37.3069 5.69912 36.3528 5.31732 35.3563C5.01001 34.5532 4.76979 33.7292 4.60204 32.8864C4.40208 31.8833 4.3068 30.866 4.27191 29.4878L4.27124 29.4912Z" fill="#A0A0A0"/>
<path d="M36.2743 36.6729C36.6272 36.8212 36.9701 36.9648 37.313 37.1084C37.4311 37.158 37.5492 37.2077 37.6673 37.2573C37.8612 37.3385 37.89 37.3882 37.8021 37.5734C37.5706 38.0619 37.3452 38.5544 37.0889 39.0301C36.8426 39.4857 36.5688 39.9265 36.2917 40.364C35.7804 41.1712 35.1953 41.9241 34.5632 42.6401C33.3964 43.9612 32.0718 45.0986 30.593 46.0568C29.6844 46.6452 28.7424 47.1746 27.7352 47.5705C26.9173 47.8926 26.0906 48.2026 25.2478 48.4489C24.55 48.6528 23.8246 48.7649 23.1087 48.9011C22.0525 49.1024 20.9823 49.1709 19.9101 49.1568C18.9338 49.1433 17.9568 49.0917 16.9932 48.9072C16.4135 48.7964 15.8257 48.7112 15.2567 48.5582C14.5535 48.369 13.8563 48.1476 13.1739 47.8919C12.5392 47.6544 11.9178 47.3746 11.3079 47.078C10.2477 46.5627 9.25868 45.9293 8.31996 45.2147C7.10277 44.288 6.00502 43.2379 5.03879 42.0523C4.24031 41.0726 3.51765 40.0399 2.94663 38.91C2.60308 38.2303 2.26222 37.5459 1.98107 36.8393C1.72005 36.1837 1.52345 35.5013 1.32685 34.8223C1.17655 34.3043 1.03564 33.7789 0.951091 33.2468C0.698797 31.6666 0.53239 30.079 0.696113 28.4754C0.743754 28.009 0.759858 27.538 0.832996 27.0763C0.933645 26.4382 1.06449 25.8041 1.20271 25.1727C1.28927 24.7755 1.39663 24.3809 1.52479 23.9951C1.71066 23.4355 1.89854 22.8739 2.13137 22.3324C2.41923 21.6627 2.7252 20.9985 3.07412 20.359C3.73639 19.1465 4.51139 18.0038 5.4528 16.9906C6.105 16.2887 6.81425 15.6406 7.49732 14.9675C7.59461 14.8716 7.66775 14.8803 7.75565 14.989C8.05156 15.3527 8.35418 15.711 8.65814 16.0673C8.75141 16.1767 8.7353 16.2492 8.63197 16.3478C8.09316 16.8577 7.53892 17.3543 7.03299 17.8964C6.08957 18.907 5.29377 20.0295 4.62278 21.2407C4.1618 22.072 3.76524 22.9316 3.44921 23.8267C3.17879 24.5943 2.95804 25.376 2.79364 26.1745C2.50109 27.5923 2.35683 29.0229 2.43533 30.4675C2.47693 31.2405 2.58094 32.0115 2.69434 32.7784C2.77553 33.3287 2.89631 33.8755 3.04124 34.4123C3.18483 34.9437 3.36869 35.4658 3.55589 35.9845C3.87059 36.8568 4.27856 37.6874 4.73886 38.4913C5.58968 39.9769 6.63442 41.3148 7.8724 42.4958C8.88091 43.4567 9.98403 44.2941 11.1938 44.9932C11.9628 45.4374 12.7512 45.8434 13.5806 46.1554C14.2509 46.4077 14.94 46.6164 15.6311 46.8076C16.1827 46.9606 16.7443 47.0921 17.3099 47.1733C18.5714 47.3545 19.8396 47.4692 21.1165 47.3478C21.611 47.3008 22.1076 47.2686 22.5987 47.1981C23.055 47.1324 23.5066 47.0284 23.9582 46.9317C24.2521 46.8687 24.5453 46.8002 24.8331 46.7143C25.3075 46.5728 25.7866 46.4392 26.2463 46.2587C26.8314 46.0286 27.4051 45.7662 27.9727 45.4958C28.8766 45.0657 29.718 44.5289 30.5218 43.9344C31.6444 43.1044 32.6543 42.1549 33.5494 41.0833C34.3063 40.1768 34.9725 39.2079 35.5281 38.1665C35.7536 37.7445 35.9488 37.3063 36.1595 36.8755C36.1911 36.8111 36.23 36.7507 36.2729 36.6749L36.2743 36.6729Z" fill="#A0A0A0"/>
<path d="M7.92871 29.7583C7.95823 28.9189 8.04479 28.0889 8.21254 27.2655C8.48161 25.9464 8.97144 24.7164 9.65451 23.561C10.498 22.1344 11.6031 20.9421 12.9397 19.9678C13.7167 19.4015 14.5521 18.9338 15.4492 18.5809C15.6405 18.5057 15.8357 18.4393 16.0269 18.3648C16.1316 18.3239 16.1873 18.3433 16.2249 18.4594C16.3759 18.919 16.5376 19.376 16.6926 19.8343C16.7335 19.9537 16.6778 20.0235 16.5644 20.0631C15.3345 20.4932 14.2314 21.1434 13.2517 22.0009C12.1754 22.9423 11.3313 24.0595 10.7174 25.3539C10.4396 25.9403 10.2121 26.5449 10.0551 27.1716C9.94371 27.6131 9.86118 28.066 9.81622 28.519C9.75986 29.0839 9.72027 29.6556 9.73704 30.2219C9.76053 30.9849 9.89204 31.7364 10.092 32.4785C10.3993 33.6165 10.8912 34.6639 11.5581 35.6302C12.2788 36.6742 13.1658 37.5532 14.2126 38.2725C14.8587 38.7161 15.5425 39.0912 16.2725 39.3683C16.759 39.5535 17.2676 39.6863 17.7729 39.8172C18.676 40.052 19.5987 40.1319 20.528 40.0755C21.1164 40.0399 21.7069 39.9923 22.2786 39.8232C22.7798 39.6749 23.2932 39.5622 23.781 39.379C24.4848 39.1146 25.1545 38.7691 25.7745 38.3383C26.063 38.1383 26.3415 37.9236 26.6159 37.7042C26.7347 37.6096 26.8072 37.615 26.9058 37.7317C27.2037 38.086 27.509 38.4343 27.817 38.7798C27.9089 38.8825 27.9049 38.9563 27.8002 39.0449C27.089 39.6447 26.326 40.1701 25.4833 40.5613C24.8492 40.8559 24.1977 41.1236 23.534 41.3417C23.0187 41.5108 22.4766 41.6161 21.9377 41.6939C21.3043 41.7852 20.6629 41.8577 20.0234 41.8637C19.2216 41.8711 18.4237 41.7751 17.632 41.6175C16.7134 41.4349 15.8337 41.1431 14.9856 40.7586C14.2025 40.4036 13.4705 39.9567 12.7813 39.4381C11.7239 38.6423 10.81 37.7082 10.0793 36.6071C9.7102 36.0515 9.36665 35.4732 9.07745 34.874C8.74397 34.1828 8.49503 33.4555 8.30984 32.7053C8.07029 31.735 7.9636 30.752 7.92871 29.7583Z" fill="#A0A0A0"/>
</g>
<defs>
<clipPath id="clip0_1004_923">
<rect width="38.3695" height="49.1115" fill="white" transform="translate(0.630371 0.0466309)"/>
</clipPath>
</defs>
</svg>
